<svg xmlns="http://www.w3.org/2000/svg" viewBox="0 0 800 260" width="800" height="260">
  <rect x="0" y="0" width="800" height="260" fill="#05061a"/>
  <rect x="337" y="15" width="1" height="1" fill="#FFFFFF"/>
  <rect x="80" y="40" width="1" height="1" fill="#8FE7FF"/>
  <rect x="602" y="9" width="2" height="2" fill="#FFFFFF"/>
  <rect x="44" y="11" width="1" height="1" fill="#FFEFA0"/>
  <rect x="77" y="21" width="1" height="1" fill="#FFEFA0"/>
  <rect x="66" y="42" width="1" height="1" fill="#FFFFFF"/>
  <rect x="651" y="46" width="2" height="2" fill="#FFFFFF"/>
  <rect x="596" y="43" width="1" height="1" fill="#FFFFFF"/>
  <rect x="232" y="8" width="2" height="2" fill="#FFFFFF"/>
  <rect x="302" y="32" width="1" height="1" fill="#FFFFFF"/>
  <rect x="590" y="25" width="2" height="2" fill="#FFFFFF"/>
  <rect x="111" y="43" width="2" height="2" fill="#FFFFFF"/>
  <rect x="387" y="12" width="2" height="2" fill="#FFFFFF"/>
  <rect x="583" y="9" width="2" height="2" fill="#FFFFFF"/>
  <rect x="514" y="49" width="2" height="2" fill="#FFEFA0"/>
  <rect x="327" y="35" width="2" height="2" fill="#FFEFA0"/>
  <rect x="376" y="25" width="1" height="1" fill="#FFFFFF"/>
  <rect x="721" y="55" width="1" height="1" fill="#FFFFFF"/>
  <rect x="594" y="25" width="2" height="2" fill="#FFEFA0"/>
  <rect x="357" y="52" width="1" height="1" fill="#8FE7FF"/>
  <rect x="629" y="10" width="1" height="1" fill="#FFEFA0"/>
  <rect x="174" y="54" width="1" height="1" fill="#FFFFFF"/>
  <rect x="506" y="32" width="1" height="1" fill="#FFFFFF"/>
  <rect x="788" y="41" width="2" height="2" fill="#8FE7FF"/>
  <rect x="354" y="50" width="1" height="1" fill="#FFEFA0"/>
  <rect x="599" y="35" width="1" height="1" fill="#FFFFFF"/>
  <rect x="282" y="36" width="2" height="2" fill="#FFFFFF"/>
  <rect x="68" y="52" width="2" height="2" fill="#8FE7FF"/>
  <rect x="668" y="42" width="2" height="2" fill="#FFEFA0"/>
  <rect x="297" y="51" width="1" height="1" fill="#8FE7FF"/>
  <rect x="29" y="35" width="1" height="1" fill="#FFFFFF"/>
  <rect x="631" y="13" width="1" height="1" fill="#FFFFFF"/>
  <rect x="229" y="55" width="1" height="1" fill="#FFFFFF"/>
  <rect x="762" y="21" width="1" height="1" fill="#FFEFA0"/>
  <rect x="514" y="11" width="1" height="1" fill="#FFEFA0"/>
  <rect x="417" y="41" width="1" height="1" fill="#FFFFFF"/>
  <rect x="446" y="41" width="1" height="1" fill="#FFEFA0"/>
  <rect x="373" y="49" width="1" height="1" fill="#FFFFFF"/>
  <rect x="160" y="11" width="1" height="1" fill="#FFFFFF"/>
  <rect x="243" y="48" width="1" height="1" fill="#FFFFFF"/>
  <rect x="40" y="65" width="430" height="165" rx="10" fill="#0D1226" stroke="#3B4A7A" stroke-width="2"/>
  <rect x="40" y="65" width="430" height="26" rx="10" fill="#151B36"/>
  <rect x="40" y="81" width="430" height="10" fill="#151B36"/>
  <circle cx="56" cy="78" r="5.5" fill="#FF6159"/>
  <circle cx="74" cy="78" r="5.5" fill="#FFC02E"/>
  <circle cx="92" cy="78" r="5.5" fill="#28C840"/>
  <rect x="58" y="109" width="78" height="13" fill="#1B2450" rx="2"/>
  <text x="58" y="119.5" font-family="'Courier New', monospace" font-size="10" fill="#7C8BC0">xops</text>
  <rect x="144" y="109.5" width="240" height="12" fill="#1B2450" rx="2"/>
  <rect x="144" y="109.5" width="84" height="12" fill="#6FE0A0" rx="2"/>
  <circle cx="450" cy="115.5" r="5" fill="#28C840"/>
  <rect x="58" y="145" width="78" height="13" fill="#1B2450" rx="2"/>
  <text x="58" y="155.5" font-family="'Courier New', monospace" font-size="10" fill="#7C8BC0">research</text>
  <rect x="144" y="145.5" width="240" height="12" fill="#1B2450" rx="2"/>
  <rect x="144" y="145.5" width="168" height="12" fill="#8FE7FF" rx="2"/>
  <circle cx="450" cy="151.5" r="5" fill="#28C840"/>
  <rect x="58" y="181" width="78" height="13" fill="#1B2450" rx="2"/>
  <text x="58" y="191.5" font-family="'Courier New', monospace" font-size="10" fill="#7C8BC0">workers</text>
  <rect x="144" y="181.5" width="240" height="12" fill="#1B2450" rx="2"/>
  <rect x="144" y="181.5" width="132" height="12" fill="#FFD24D" rx="2"/>
  <circle cx="450" cy="187.5" r="5" fill="#28C840"/>
  <rect x="58" y="219" width="8" height="13" fill="#8FE7FF"/>
  <g id="title" font-family="'Courier New', monospace" font-weight="bold">
    <text x="502" y="122" font-size="34" fill="#000000" opacity="0.5">secretary</text>
    <text x="500" y="120" font-size="34" fill="#F5FBFF">secretary</text>
    <text x="502" y="162" font-size="34" fill="#000000" opacity="0.5">-tui</text>
    <text x="500" y="160" font-size="34" fill="#8FE7FF">-tui</text>
  </g>
  <text x="500" y="188" font-family="'Courier New', monospace" font-size="13" fill="#8FA0C8">read-only terminal dashboard</text>
</svg>
